<svg width="1200" height="1200" xmlns="http://www.w3.org/2000/svg" xmlns:xlink="http://www.w3.org/1999/xlink" version="1.1"><g transform="scale(24.64355156870108) translate(7.944266835848489, -13.740434010823568)">                        <g fill="#384259"><path d="M0.66 16.5 l0 0 c0.06 0 6.6 -0.12 13.62 -0.18 c-1.14 8.52 -0.24 16.44 -0.24 16.44 c0.12 1.14 1.14 1.92 2.22 1.8 c1.14 -0.12 1.92 -1.14 1.8 -2.22 c0 -0.06 -0.9 -7.98 0.24 -16.08 c6.9 -0.06 13.2 -0.12 13.26 -0.06 c0.84 0.78 1.2 8.76 1.26 17.64 c-1.44 1.8 -3.36 2.1 -3.6 2.16 c-0.9 0.06 -1.62 0.66 -1.8 1.5 c-0.24 1.08 0.42 2.16 1.44 2.46 c1.86 0.42 3.12 1.8 3.9 3.3 c-0.12 8.28 -0.54 15.3 -1.02 15.78 c-0.6 0.48 -6.48 0.84 -13.08 0.9 c-1.38 -8.1 -0.6 -16.14 -0.6 -16.2 c0.12 -1.08 -0.72 -2.04 -1.8 -2.16 s-2.1 0.72 -2.22 1.8 c0 0.06 -0.72 8.1 0.6 16.62 c-7.08 0 -13.74 -0.3 -14.1 -0.96 c-0.48 -0.84 -0.6 -7.62 -0.54 -15.54 c0.84 -1.62 2.04 -3.06 4.02 -3.54 c1.08 -0.3 1.74 -1.38 1.44 -2.46 c-0.18 -0.84 -0.9 -1.44 -1.74 -1.5 c-0.24 -0.06 -2.16 -0.36 -3.54 -2.1 c0.18 -9.12 0.42 -17.34 0.48 -17.4 z"/></g>        </g></svg>